<svg width="114" height="30" viewBox="0 0 114 30" fill="none" xmlns="http://www.w3.org/2000/svg">
<path d="M7.70455 23.69H1.51705V6.23546H7.75568C9.51136 6.23546 11.0227 6.58489 12.2898 7.28375C13.5568 7.97693 14.5313 8.97409 15.2131 10.2752C15.9006 11.5764 16.2443 13.1332 16.2443 14.9457C16.2443 16.7639 15.9006 18.3264 15.2131 19.6332C14.5313 20.94 13.5511 21.9428 12.2727 22.6417C11 23.3406 9.47727 23.69 7.70455 23.69ZM5.20739 20.5281H7.55114C8.64205 20.5281 9.55966 20.3349 10.304 19.9485C11.054 19.5565 11.6165 18.9514 11.9915 18.1332C12.3722 17.3093 12.5625 16.2468 12.5625 14.9457C12.5625 13.6559 12.3722 12.6019 11.9915 11.7838C11.6165 10.9656 11.0568 10.3633 10.3125 9.97693C9.56818 9.59057 8.65057 9.39739 7.55966 9.39739H5.20739V20.5281ZM18.9098 23.69V10.5991H22.5405V23.69H18.9098ZM20.7337 8.91159C20.1939 8.91159 19.7308 8.73262 19.3445 8.37466C18.9638 8.01102 18.7734 7.57637 18.7734 7.07068C18.7734 6.57068 18.9638 6.14171 19.3445 5.78375C19.7308 5.42012 20.1939 5.2383 20.7337 5.2383C21.2734 5.2383 21.7337 5.42012 22.1143 5.78375C22.5007 6.14171 22.6939 6.57068 22.6939 7.07068C22.6939 7.57637 22.5007 8.01102 22.1143 8.37466C21.7337 8.73262 21.2734 8.91159 20.7337 8.91159ZM29.0795 16.1218V23.69H25.4489V10.5991H28.9091V12.9088H29.0625C29.3523 12.1474 29.8381 11.5451 30.5199 11.1019C31.2017 10.6531 32.0284 10.4286 33 10.4286C33.9091 10.4286 34.7017 10.6275 35.3778 11.0252C36.054 11.423 36.5795 11.9911 36.9545 12.7298C37.3295 13.4627 37.517 14.3377 37.517 15.3548V23.69H33.8864V16.0025C33.892 15.2014 33.6875 14.5764 33.2727 14.1275C32.858 13.673 32.2869 13.4457 31.5597 13.4457C31.071 13.4457 30.6392 13.5508 30.2642 13.761C29.8949 13.9713 29.6051 14.2781 29.3949 14.6815C29.1903 15.0792 29.0852 15.5593 29.0795 16.1218ZM46.6342 23.69H40.4467V6.23546H46.6854C48.4411 6.23546 49.9524 6.58489 51.2195 7.28375C52.4865 7.97693 53.4609 8.97409 54.1428 10.2752C54.8303 11.5764 55.174 13.1332 55.174 14.9457C55.174 16.7639 54.8303 18.3264 54.1428 19.6332C53.4609 20.94 52.4808 21.9428 51.2024 22.6417C49.9297 23.3406 48.407 23.69 46.6342 23.69ZM44.1371 20.5281H46.4808C47.5717 20.5281 48.4893 20.3349 49.2337 19.9485C49.9837 19.5565 50.5462 18.9514 50.9212 18.1332C51.3018 17.3093 51.4922 16.2468 51.4922 14.9457C51.4922 13.6559 51.3018 12.6019 50.9212 11.7838C50.5462 10.9656 49.9865 10.3633 49.2422 9.97693C48.4979 9.59057 47.5803 9.39739 46.4893 9.39739H44.1371V20.5281ZM57.8395 23.69V10.5991H61.4702V23.69H57.8395ZM59.6634 8.91159C59.1236 8.91159 58.6605 8.73262 58.2741 8.37466C57.8935 8.01102 57.7031 7.57637 57.7031 7.07068C57.7031 6.57068 57.8935 6.14171 58.2741 5.78375C58.6605 5.42012 59.1236 5.2383 59.6634 5.2383C60.2031 5.2383 60.6634 5.42012 61.044 5.78375C61.4304 6.14171 61.6236 6.57068 61.6236 7.07068C61.6236 7.57637 61.4304 8.01102 61.044 8.37466C60.6634 8.73262 60.2031 8.91159 59.6634 8.91159ZM68.0092 16.1218V23.69H64.3786V10.5991H67.8388V12.9088H67.9922C68.282 12.1474 68.7678 11.5451 69.4496 11.1019C70.1314 10.6531 70.9581 10.4286 71.9297 10.4286C72.8388 10.4286 73.6314 10.6275 74.3075 11.0252C74.9837 11.423 75.5092 11.9911 75.8842 12.7298C76.2592 13.4627 76.4467 14.3377 76.4467 15.3548V23.69H72.8161V16.0025C72.8217 15.2014 72.6172 14.5764 72.2024 14.1275C71.7876 13.673 71.2166 13.4457 70.4893 13.4457C70.0007 13.4457 69.5689 13.5508 69.1939 13.761C68.8246 13.9713 68.5348 14.2781 68.3246 14.6815C68.12 15.0792 68.0149 15.5593 68.0092 16.1218Z" fill="#005C53"/>
<g clip-path="url(#clip0_5_36)">
<path d="M113.167 13.3333H111.63C111.172 12.2917 110.505 11.3698 109.682 10.599L110.667 6.66667H109C107.469 6.66667 106.115 7.36979 105.198 8.45313C104.802 8.39583 104.411 8.33333 104 8.33333H97.3333C93.3021 8.33333 89.9427 11.1979 89.1667 15H86.9167C86.1458 15 85.5365 14.2969 85.6927 13.5C85.8073 12.9062 86.3646 12.5 86.9688 12.5H87.0208C87.1927 12.5 87.3333 12.3594 87.3333 12.1875V11.1458C87.3333 10.974 87.1927 10.8333 87.0208 10.8333C85.5365 10.8333 84.2135 11.8958 84.026 13.3646C83.7969 15.1458 85.1823 16.6667 86.9167 16.6667H89C89 19.3854 90.3229 21.776 92.3333 23.2969V27.5C92.3333 27.9583 92.7083 28.3333 93.1667 28.3333H96.5C96.9583 28.3333 97.3333 27.9583 97.3333 27.5V25H104V27.5C104 27.9583 104.375 28.3333 104.833 28.3333H108.167C108.625 28.3333 109 27.9583 109 27.5V23.2969C109.615 22.8333 110.161 22.2865 110.63 21.6667H113.167C113.625 21.6667 114 21.2917 114 20.8333V14.1667C114 13.7083 113.625 13.3333 113.167 13.3333ZM106.5 16.6667C106.042 16.6667 105.667 16.2917 105.667 15.8333C105.667 15.375 106.042 15 106.5 15C106.958 15 107.333 15.375 107.333 15.8333C107.333 16.2917 106.958 16.6667 106.5 16.6667ZM97.3333 6.66667H104C104.281 6.66667 104.557 6.6875 104.828 6.70833C104.828 6.69271 104.833 6.68229 104.833 6.66667C104.833 3.90625 102.594 1.66667 99.8333 1.66667C97.0729 1.66667 94.8333 3.90625 94.8333 6.66667C94.8333 6.77604 94.8594 6.88021 94.8646 6.98958C95.6563 6.78646 96.4792 6.66667 97.3333 6.66667Z" fill="#042940"/>
</g>
<defs>
<clipPath id="clip0_5_36">
<rect width="30" height="30" fill="white" transform="translate(84)"/>
</clipPath>
</defs>
</svg>
