<svg width="30" height="30" viewBox="0 0 30 30" fill="none" xmlns="http://www.w3.org/2000/svg">
<g clip-path="url(#clip0_6_111)">
<path d="M29.1667 13.3333H27.6302C27.1719 12.2917 26.5052 11.3698 25.6823 10.599L26.6667 6.66667H25C23.4688 6.66667 22.1146 7.36979 21.1979 8.45313C20.8021 8.39583 20.4115 8.33333 20 8.33333H13.3333C9.30208 8.33333 5.94271 11.1979 5.16667 15H2.91667C2.14583 15 1.53646 14.2969 1.69271 13.5C1.80729 12.9062 2.36458 12.5 2.96875 12.5H3.02083C3.19271 12.5 3.33333 12.3594 3.33333 12.1875V11.1458C3.33333 10.974 3.19271 10.8333 3.02083 10.8333C1.53646 10.8333 0.213542 11.8958 0.0260424 13.3646C-0.203124 15.1458 1.18229 16.6667 2.91667 16.6667H5C5 19.3854 6.32292 21.776 8.33333 23.2969V27.5C8.33333 27.9583 8.70833 28.3333 9.16667 28.3333H12.5C12.9583 28.3333 13.3333 27.9583 13.3333 27.5V25H20V27.5C20 27.9583 20.375 28.3333 20.8333 28.3333H24.1667C24.625 28.3333 25 27.9583 25 27.5V23.2969C25.6146 22.8333 26.1615 22.2865 26.6302 21.6667H29.1667C29.625 21.6667 30 21.2917 30 20.8333V14.1667C30 13.7083 29.625 13.3333 29.1667 13.3333ZM22.5 16.6667C22.0417 16.6667 21.6667 16.2917 21.6667 15.8333C21.6667 15.375 22.0417 15 22.5 15C22.9583 15 23.3333 15.375 23.3333 15.8333C23.3333 16.2917 22.9583 16.6667 22.5 16.6667ZM13.3333 6.66667H20C20.2812 6.66667 20.5573 6.6875 20.8281 6.70833C20.8281 6.69271 20.8333 6.68229 20.8333 6.66667C20.8333 3.90625 18.5938 1.66667 15.8333 1.66667C13.0729 1.66667 10.8333 3.90625 10.8333 6.66667C10.8333 6.77604 10.8594 6.88021 10.8646 6.98958C11.6563 6.78646 12.4792 6.66667 13.3333 6.66667Z" fill="white"/>
</g>
<defs>
<clipPath id="clip0_6_111">
<rect width="30" height="30" fill="white"/>
</clipPath>
</defs>
</svg>
